<mxfile host="app.diagrams.net" modified="2022-08-02T14:31:46.101Z" agent="5.0 (Macintosh; Intel Mac OS X 10_15_7) AppleWebKit/537.36 (KHTML, like Gecko) Chrome/103.0.0.0 Safari/537.36" etag="iu_mtMr0tPRYoHr8GZHl" version="20.2.2" type="github">
  <diagram id="S6owv8ARW7v1RW0oIhh7" name="페이지-1">
    <mxGraphModel dx="18920" dy="17420" grid="0" gridSize="10" guides="1" tooltips="1" connect="1" arrows="1" fold="1" page="1" pageScale="1" pageWidth="5000" pageHeight="5000" math="0" shadow="0">
      <root>
        <mxCell id="0" />
        <mxCell id="1" parent="0" />
        <mxCell id="TMk6Bc6wDLfyT8xFqzyk-1" value="" style="rounded=0;whiteSpace=wrap;html=1;strokeWidth=2;" vertex="1" parent="1">
          <mxGeometry x="1415" y="-1680" width="375" height="480" as="geometry" />
        </mxCell>
        <mxCell id="TMk6Bc6wDLfyT8xFqzyk-2" value="" style="endArrow=none;dashed=1;html=1;dashPattern=1 3;strokeWidth=3;rounded=0;entryX=0.75;entryY=0;entryDx=0;entryDy=0;exitX=0.75;exitY=1;exitDx=0;exitDy=0;" edge="1" parent="1">
          <mxGeometry width="50" height="50" relative="1" as="geometry">
            <mxPoint x="1711" y="-1202" as="sourcePoint" />
            <mxPoint x="1711" y="-1682" as="targetPoint" />
          </mxGeometry>
        </mxCell>
        <mxCell id="TMk6Bc6wDLfyT8xFqzyk-3" value="" style="endArrow=none;dashed=1;html=1;dashPattern=1 3;strokeWidth=3;rounded=0;entryX=0.75;entryY=0;entryDx=0;entryDy=0;exitX=0.75;exitY=1;exitDx=0;exitDy=0;" edge="1" parent="1">
          <mxGeometry width="50" height="50" relative="1" as="geometry">
            <mxPoint x="1637" y="-1202" as="sourcePoint" />
            <mxPoint x="1637" y="-1682" as="targetPoint" />
          </mxGeometry>
        </mxCell>
        <mxCell id="TMk6Bc6wDLfyT8xFqzyk-4" value="" style="endArrow=none;dashed=1;html=1;dashPattern=1 3;strokeWidth=3;rounded=0;entryX=0.75;entryY=0;entryDx=0;entryDy=0;exitX=0.75;exitY=1;exitDx=0;exitDy=0;" edge="1" parent="1">
          <mxGeometry width="50" height="50" relative="1" as="geometry">
            <mxPoint x="1562.75" y="-1200" as="sourcePoint" />
            <mxPoint x="1562.75" y="-1680" as="targetPoint" />
          </mxGeometry>
        </mxCell>
        <mxCell id="TMk6Bc6wDLfyT8xFqzyk-5" value="" style="endArrow=none;dashed=1;html=1;dashPattern=1 3;strokeWidth=3;rounded=0;entryX=0.25;entryY=0;entryDx=0;entryDy=0;exitX=0.25;exitY=1;exitDx=0;exitDy=0;" edge="1" parent="1">
          <mxGeometry width="50" height="50" relative="1" as="geometry">
            <mxPoint x="1490" y="-1200" as="sourcePoint" />
            <mxPoint x="1490" y="-1680" as="targetPoint" />
          </mxGeometry>
        </mxCell>
        <mxCell id="TMk6Bc6wDLfyT8xFqzyk-6" value="" style="shape=mxgraph.cisco.misc.car;html=1;pointerEvents=1;dashed=0;strokeColor=#ffffff;strokeWidth=2;verticalLabelPosition=bottom;verticalAlign=top;align=center;outlineConnect=0;fillColor=#036897;rotation=-90;" vertex="1" parent="1">
          <mxGeometry x="1499" y="-1610" width="52" height="28" as="geometry" />
        </mxCell>
        <mxCell id="TMk6Bc6wDLfyT8xFqzyk-7" value="" style="shape=mxgraph.cisco.misc.car;html=1;pointerEvents=1;dashed=0;strokeColor=#ffffff;strokeWidth=2;verticalLabelPosition=bottom;verticalAlign=top;align=center;outlineConnect=0;fillColor=#036897;rotation=-90;" vertex="1" parent="1">
          <mxGeometry x="1576.5" y="-1646" width="52" height="28" as="geometry" />
        </mxCell>
        <mxCell id="TMk6Bc6wDLfyT8xFqzyk-8" value="" style="shape=mxgraph.cisco.misc.car;html=1;pointerEvents=1;dashed=0;strokeColor=#ffffff;strokeWidth=2;verticalLabelPosition=bottom;verticalAlign=top;align=center;outlineConnect=0;fillColor=#036897;rotation=-90;" vertex="1" parent="1">
          <mxGeometry x="1646.75" y="-1559.5" width="52" height="28" as="geometry" />
        </mxCell>
        <mxCell id="TMk6Bc6wDLfyT8xFqzyk-9" value="" style="shape=mxgraph.cisco.misc.car;html=1;pointerEvents=1;dashed=0;strokeColor=#ffffff;strokeWidth=2;verticalLabelPosition=bottom;verticalAlign=top;align=center;outlineConnect=0;fillColor=#036897;rotation=-90;" vertex="1" parent="1">
          <mxGeometry x="1646.75" y="-1380" width="52" height="28" as="geometry" />
        </mxCell>
        <mxCell id="TMk6Bc6wDLfyT8xFqzyk-10" value="" style="shape=mxgraph.cisco.misc.car;html=1;pointerEvents=1;dashed=0;strokeColor=#ffffff;strokeWidth=2;verticalLabelPosition=bottom;verticalAlign=top;align=center;outlineConnect=0;fillColor=#036897;rotation=-90;" vertex="1" parent="1">
          <mxGeometry x="1576.5" y="-1313.5" width="52" height="28" as="geometry" />
        </mxCell>
        <mxCell id="TMk6Bc6wDLfyT8xFqzyk-11" value="" style="shape=mxgraph.cisco.misc.car;html=1;pointerEvents=1;dashed=0;strokeColor=#ffffff;strokeWidth=2;verticalLabelPosition=bottom;verticalAlign=top;align=center;outlineConnect=0;fillColor=#036897;rotation=-90;" vertex="1" parent="1">
          <mxGeometry x="1499" y="-1257" width="52" height="28" as="geometry" />
        </mxCell>
        <mxCell id="TMk6Bc6wDLfyT8xFqzyk-12" value="" style="shape=mxgraph.cisco.misc.car;html=1;pointerEvents=1;dashed=0;strokeColor=#ffffff;strokeWidth=2;verticalLabelPosition=bottom;verticalAlign=top;align=center;outlineConnect=0;fillColor=#000000;rotation=-90;" vertex="1" parent="1">
          <mxGeometry x="1423" y="-1550" width="52" height="28" as="geometry" />
        </mxCell>
        <mxCell id="TMk6Bc6wDLfyT8xFqzyk-13" value="" style="shape=mxgraph.cisco.misc.car;html=1;pointerEvents=1;dashed=0;strokeColor=#ffffff;strokeWidth=2;verticalLabelPosition=bottom;verticalAlign=top;align=center;outlineConnect=0;fillColor=#000000;rotation=-90;" vertex="1" parent="1">
          <mxGeometry x="1425" y="-1413" width="52" height="28" as="geometry" />
        </mxCell>
        <mxCell id="TMk6Bc6wDLfyT8xFqzyk-14" value="" style="shape=mxgraph.cisco.misc.car;html=1;pointerEvents=1;dashed=0;strokeColor=#ffffff;strokeWidth=2;verticalLabelPosition=bottom;verticalAlign=top;align=center;outlineConnect=0;fillColor=#000000;rotation=-90;" vertex="1" parent="1">
          <mxGeometry x="1727.75" y="-1420" width="52" height="28" as="geometry" />
        </mxCell>
        <mxCell id="TMk6Bc6wDLfyT8xFqzyk-15" value="" style="shape=mxgraph.cisco.misc.car;html=1;pointerEvents=1;dashed=0;strokeColor=#ffffff;strokeWidth=2;verticalLabelPosition=bottom;verticalAlign=top;align=center;outlineConnect=0;fillColor=#000000;rotation=-90;" vertex="1" parent="1">
          <mxGeometry x="1727.75" y="-1651" width="52" height="28" as="geometry" />
        </mxCell>
        <mxCell id="TMk6Bc6wDLfyT8xFqzyk-16" value="" style="shape=mxgraph.cisco.misc.car;html=1;pointerEvents=1;dashed=0;strokeColor=#ffffff;strokeWidth=2;verticalLabelPosition=bottom;verticalAlign=top;align=center;outlineConnect=0;rotation=-90;fillColor=#FF3333;" vertex="1" parent="1">
          <mxGeometry x="1573.17" y="-1491" width="52" height="28" as="geometry" />
        </mxCell>
        <mxCell id="TMk6Bc6wDLfyT8xFqzyk-17" value="" style="rounded=0;whiteSpace=wrap;html=1;strokeWidth=2;fillColor=#FFFFFF;" vertex="1" parent="1">
          <mxGeometry x="1633" y="-1327" width="157" height="127" as="geometry" />
        </mxCell>
        <mxCell id="TMk6Bc6wDLfyT8xFqzyk-18" value="" style="shape=mxgraph.cisco.misc.car;html=1;pointerEvents=1;dashed=0;strokeColor=#ffffff;strokeWidth=2;verticalLabelPosition=bottom;verticalAlign=top;align=center;outlineConnect=0;rotation=0;fillColor=#FF3333;" vertex="1" parent="1">
          <mxGeometry x="1644" y="-1313.5" width="35.11" height="20.5" as="geometry" />
        </mxCell>
        <mxCell id="TMk6Bc6wDLfyT8xFqzyk-19" value="" style="shape=mxgraph.cisco.misc.car;html=1;pointerEvents=1;dashed=0;strokeColor=#ffffff;strokeWidth=2;verticalLabelPosition=bottom;verticalAlign=top;align=center;outlineConnect=0;rotation=0;fillColor=#036897;" vertex="1" parent="1">
          <mxGeometry x="1644" y="-1277" width="34.25" height="20" as="geometry" />
        </mxCell>
        <mxCell id="TMk6Bc6wDLfyT8xFqzyk-20" value="" style="shape=mxgraph.cisco.misc.car;html=1;pointerEvents=1;dashed=0;strokeColor=#ffffff;strokeWidth=2;verticalLabelPosition=bottom;verticalAlign=top;align=center;outlineConnect=0;rotation=0;fillColor=#000000;" vertex="1" parent="1">
          <mxGeometry x="1644" y="-1237.5" width="34.25" height="20" as="geometry" />
        </mxCell>
      </root>
    </mxGraphModel>
  </diagram>
</mxfile>
